<svg width="26" height="26" viewBox="0 0 26 26" fill="none" xmlns="http://www.w3.org/2000/svg">
<g clip-path="url(#clip0_633_1502)">
<path fill-rule="evenodd" clip-rule="evenodd" d="M7.18359 7.0936C7.93591 6.38998 8.94953 6 10 6H16C17.0505 6 18.0641 6.38998 18.8164 7.0936C19.5699 7.79828 20 8.76147 20 9.77346C20 10.1653 19.8333 10.5338 19.5486 10.8C19.2652 11.0651 18.8874 11.2087 18.5 11.2087H7.5C7.11257 11.2087 6.73483 11.0651 6.45136 10.8C6.16675 10.5338 6 10.1653 6 9.77346C6 8.76147 6.43014 7.79828 7.18359 7.0936ZM6.76959 12.75C6.35538 12.75 6.01959 13.0858 6.01959 13.5C6.01959 13.9142 6.35538 14.25 6.76959 14.25H19.2304C19.6446 14.25 19.9804 13.9142 19.9804 13.5C19.9804 13.0858 19.6446 12.75 19.2304 12.75H6.76959ZM6.30608 16.0174C6.49596 15.8409 6.74614 15.7476 7 15.7476H8.5C8.57278 15.7476 8.64468 15.7634 8.71069 15.7941L11.4059 17.0464L12.6596 15.8813C12.7521 15.7953 12.8737 15.7476 13 15.7476H19C19.2539 15.7476 19.504 15.8409 19.6939 16.0174C19.885 16.195 20 16.444 20 16.7122C20 17.5965 19.6216 18.4365 18.9617 19.0497C18.303 19.6619 17.4169 20 16.5 20H9.5C8.5831 20 7.69703 19.6619 7.03832 19.0497C6.37836 18.4365 6 17.5965 6 16.7122C6 16.444 6.11497 16.195 6.30608 16.0174Z" fill="black"/>
</g>
<circle cx="13" cy="13" r="12.5" stroke="black"/>
<defs>
<clipPath id="clip0_633_1502">
<rect width="14" height="14" fill="white" transform="translate(6 6)"/>
</clipPath>
</defs>
</svg>
