<svg width="47" height="50" viewBox="0 0 47 50" fill="none" xmlns="http://www.w3.org/2000/svg">
<path d="M23.5762 48.9343C36.2796 48.9024 46.505 38.0146 46.4716 24.6731C46.4382 11.3316 36.1583 0.495095 23.4549 0.526928C10.7514 0.558761 0.525968 11.4466 0.5594 24.7881C0.592832 38.1296 10.8727 48.9661 23.5762 48.9343Z" fill="white" stroke="black"/>
<path d="M9.08334 39.9167H35.2917M16.0208 26.0417H20.6458M32.9792 30.6821L39.9167 30.6667V21.4167L36.8333 19.875M11.3958 39.9167V13.7083C11.3958 10.625 13.4617 9.08334 16.0208 9.08334H28.3542C30.9133 9.08334 32.9792 10.625 32.9792 13.7083V39.9167H11.3958ZM18.9346 21.4167H25.4558C27.0592 21.4167 28.3696 20.6458 28.3696 18.5029V16.6067C28.3696 14.4638 27.0592 13.6929 25.4558 13.6929H18.9346C17.3313 13.6929 16.0208 14.4638 16.0208 16.6067V18.5029C16.0208 20.6458 17.3313 21.4167 18.9346 21.4167Z" stroke="#292D32" stroke-width="1.5" stroke-linecap="round" stroke-linejoin="round"/>
</svg>
