<svg width="24" height="24" viewBox="0 0 24 24" fill="none" xmlns="http://www.w3.org/2000/svg">
<rect width="24" height="24" rx="12" fill="white" fill-opacity="0.15"/>
<path d="M15.6 7.79999H8.39999H10.3636C11.058 7.79999 11.724 8.08897 12.215 8.60336C12.706 9.11774 12.9818 9.8154 12.9818 10.5428C12.9818 11.2703 12.706 11.968 12.215 12.4823C11.724 12.9967 11.058 13.2857 10.3636 13.2857H8.39999L12.3273 17.4M8.39999 10.5428H15.6M21.6 12C21.6 17.3019 17.3019 21.6 12 21.6C6.69806 21.6 2.39999 17.3019 2.39999 12C2.39999 6.69806 6.69806 2.39999 12 2.39999C17.3019 2.39999 21.6 6.69806 21.6 12Z" stroke="white" stroke-linecap="round" stroke-linejoin="round"/>
</svg>
