<svg width="32" height="32" viewBox="0 0 32 32" fill="none" xmlns="http://www.w3.org/2000/svg">
<path d="M8.77997 12.3V16.7M20.2217 12.3003V16.7003M23.3 11.92V17.07C23.3 20.15 21.54 21.47 18.9 21.47H10.11C9.65995 21.47 9.22996 21.43 8.82996 21.34C8.57996 21.3 8.33996 21.23 8.11996 21.15C6.61996 20.59 5.70996 19.29 5.70996 17.07V11.92C5.70996 8.83998 7.46995 7.52002 10.11 7.52002H18.9C21.14 7.52002 22.75 8.47001 23.18 10.64C23.25 11.04 23.3 11.45 23.3 11.92ZM26.3011 14.9201V20.0701C26.3011 23.1501 24.5411 24.4701 21.9011 24.4701H13.1111C12.3711 24.4701 11.7011 24.3701 11.1211 24.1501C9.93106 23.7101 9.12105 22.8001 8.83105 21.3401C9.23105 21.4301 9.66105 21.4701 10.1111 21.4701H18.9011C21.5411 21.4701 23.3011 20.1501 23.3011 17.0701V11.9201C23.3011 11.4501 23.2611 11.0301 23.1811 10.6401C25.0811 11.0401 26.3011 12.3801 26.3011 14.9201ZM17.1384 14.4999C17.1384 15.9579 15.9564 17.1399 14.4984 17.1399C13.0404 17.1399 11.8584 15.9579 11.8584 14.4999C11.8584 13.0418 13.0404 11.8599 14.4984 11.8599C15.9564 11.8599 17.1384 13.0418 17.1384 14.4999Z" stroke="#292D32" stroke-width="1.5" stroke-miterlimit="10" stroke-linecap="round" stroke-linejoin="round"/>
<circle cx="16" cy="16" r="15.5" stroke="black"/>
</svg>
