<svg width="24" height="24" viewBox="0 0 24 24" fill="none" xmlns="http://www.w3.org/2000/svg">
<path fill-rule="evenodd" clip-rule="evenodd" d="M11.1462 6.01256C11.4744 5.68437 11.9195 5.5 12.3837 5.5C12.8478 5.5 13.2929 5.68437 13.6211 6.01256C13.9493 6.34075 14.1337 6.78587 14.1337 7.25V7.91284H10.6337V7.25C10.6337 6.78587 10.8181 6.34075 11.1462 6.01256ZM9.13368 7.91284V7.25C9.13368 6.38805 9.47609 5.5614 10.0856 4.9519C10.6951 4.34241 11.5217 4 12.3837 4C13.2456 4 14.0723 4.34241 14.6818 4.9519C15.2913 5.5614 15.6337 6.38805 15.6337 7.25V7.91284H17.3837C17.6384 7.91284 17.8524 8.10429 17.8806 8.35742L18.7277 15.9525C18.73 15.973 18.7331 15.9967 18.7365 16.0233C18.7577 16.186 18.7927 16.4543 18.7386 16.713C18.6243 17.2597 18.2075 17.7085 17.6657 17.8591C17.4213 17.927 17.1434 17.9194 16.9742 17.9147C16.9388 17.9137 16.9082 17.9128 16.8837 17.9128H7.88368C7.85911 17.9128 7.82851 17.9137 7.79317 17.9147C7.62395 17.9194 7.3461 17.927 7.10163 17.8591C6.5599 17.7085 6.14301 17.2598 6.02874 16.713C5.97467 16.4543 6.00962 16.186 6.03081 16.0233C6.03427 15.9967 6.03737 15.973 6.03965 15.9525L6.88676 8.35742C6.91499 8.10429 7.12898 7.91284 7.38368 7.91284H9.13368Z" fill="black"/>
<circle cx="12" cy="12" r="11.5" stroke="black"/>
</svg>
